<?xml version="1.0" standalone="no"?><!DOCTYPE svg PUBLIC "-//W3C//DTD SVG 1.1//EN" "http://www.w3.org/Graphics/SVG/1.1/DTD/svg11.dtd"><svg width="200" height="200" viewBox="0 0 200 200" version="1.1" xmlns="http://www.w3.org/2000/svg" xmlns:xlink="http://www.w3.org/1999/xlink"><defs><style type="text/css"><![CDATA[
@font-face { font-family: ifont; src: url("//at.alicdn.com/t/font_1442373896_4754455.eot?#iefix") format("embedded-opentype"), url("//at.alicdn.com/t/font_1442373896_4754455.woff") format("woff"), url("//at.alicdn.com/t/font_1442373896_4754455.ttf") format("truetype"), url("//at.alicdn.com/t/font_1442373896_4754455.svg#ifont") format("svg"); }

]]></style></defs><g class="transform-group"><g transform="scale(0.1953125, 0.1953125)"><path d="M916.226926 511.74008c0 54.618968-10.68741 107.581204-31.765471 157.415192-20.367887 48.155766-49.536206 91.412966-86.693478 128.571261-37.157271 37.157271-80.414471 66.325591-128.570237 86.693478-49.833989 21.078061-102.796224 31.765471-157.415192 31.765471-54.618968 0-107.581204-10.68741-157.415192-31.765471-48.155766-20.367887-91.412966-49.536206-128.570237-86.693478-37.157271-37.157271-66.325591-80.414471-86.693478-128.571261-21.078061-49.833989-31.765471-102.796224-31.765471-157.415192s10.68741-107.580181 31.765471-157.415192c20.367887-48.155766 49.536206-91.412966 86.693478-128.570237 37.157271-37.157271 80.414471-66.325591 128.570237-86.693478 49.833989-21.078061 102.796224-31.765471 157.415192-31.765471 54.618968 0 107.580181 10.68741 157.415192 31.765471 48.155766 20.367887 91.412966 49.536206 128.570237 86.693478 37.157271 37.157271 66.325591 80.414471 86.693478 128.570237C905.539516 404.1599 916.226926 457.122135 916.226926 511.74008M959.55985 511.74008c0-247.301386-200.476941-447.778326-447.778326-447.778326s-447.778326 200.476941-447.778326 447.778326 200.476941 447.778326 447.778326 447.778326S959.55985 759.041466 959.55985 511.74008L959.55985 511.74008zM418.797783 510.396479c0-52.012607 42.314735-94.327342 94.327342-94.327342s94.327342 42.314735 94.327342 94.327342-42.314735 94.327342-94.327342 94.327342S418.797783 562.41011 418.797783 510.396479zM564.249503 510.396479c0-28.190039-22.933315-51.124378-51.124378-51.124378-28.190039 0-51.124378 22.933315-51.124378 51.124378s22.933315 51.124378 51.124378 51.124378C541.315164 561.520857 564.249503 538.587542 564.249503 510.396479zM173.317882 510.396479c0-59.135842 15.436574-117.387547 44.639686-168.453596 5.92392-10.356882 19.119453-13.950733 29.476335-8.02886 10.357905 5.92392 13.94971 19.122523 8.02886 29.476335-25.475208 44.546565-38.940894 95.380324-38.940894 147.007145 0 51.624774 13.465686 102.458533 38.940894 147.007145 5.92085 10.358929 2.325975 23.553439-8.02886 29.476335-10.356882 5.921873-23.553439 2.326998-29.476335-8.02886C188.754456 627.783003 173.317882 569.533344 173.317882 510.396479zM767.932462 352.686575c0-7.497765 3.906983-14.783705 10.882861-18.772552 10.356882-5.921873 23.552415-2.328022 29.476335 8.02886 29.204136 51.068096 44.64071 109.318778 44.64071 168.453596 0 59.135842-15.436574 117.387547-44.64071 168.453596-5.92392 10.356882-19.119453 13.950733-29.476335 8.02886-10.356882-5.924943-13.94664-19.123546-8.02886-29.476335 25.476231-44.547589 38.941917-95.380324 38.941917-147.007145 0-51.624774-13.465686-102.458533-38.941917-147.007145C768.852414 360.009354 767.932462 356.321358 767.932462 352.686575zM285.733185 510.396479c0-39.572274 10.331299-78.5541 29.876448-112.731504 5.92392-10.356882 19.119453-13.950733 29.476335-8.02886 10.358929 5.921873 13.94971 19.120476 8.02886 29.476335-15.817244 27.65792-24.177656 59.222823-24.177656 91.284029s8.360412 63.626109 24.177656 91.284029c5.92085 10.353812 2.330068 23.552415-8.02886 29.476335-10.356882 5.921873-23.552415 2.326998-29.476335-8.02886C296.064484 588.95058 285.733185 549.968753 285.733185 510.396479zM670.283468 612.384291c0-3.63683 0.919952-7.321756 2.854001-10.703783 15.817244-27.658943 24.176632-59.22487 24.176632-91.284029s-8.359388-63.625086-24.176632-91.284029c-5.92085-10.358929-2.325975-23.555485 8.02886-29.476335 10.356882-5.921873 23.553439-2.328022 29.476335 8.02886 19.544125 34.178427 29.875424 73.160253 29.875424 112.731504s-10.331299 78.552054-29.875424 112.731504c-5.921873 10.356882-19.119453 13.950733-29.476335 8.02886C674.191474 627.167996 670.283468 619.881033 670.283468 612.384291z" fill="#FFF"></path></g></g></svg>